/* XPM */
static char *_18e8db21ed040fd8e1f6b1f1da58f7fxxFDmvhYdjTdBdCl[] = {
/* columns rows colors chars-per-pixel */
"50 50 228 2 ",
"   c #090202",
".  c #0C0B0E",
"X  c #060507",
"o  c #110C0C",
"O  c #160708",
"+  c #12120D",
"@  c #0E0D11",
"#  c #120E13",
"$  c #0F1213",
"%  c #131414",
"&  c #1B1514",
"*  c #15151A",
"=  c #1B1B1C",
"-  c #181917",
";  c #0F110E",
":  c #241A18",
">  c #3B140C",
",  c #23211E",
"<  c #1D1C22",
"1  c #231F24",
"2  c #242423",
"3  c #2D2C2C",
"4  c #292626",
"5  c #332C2C",
"6  c #32322D",
"7  c #3A312C",
"8  c #2D2C33",
"9  c #292732",
"0  c #312E32",
"q  c #343434",
"w  c #3A3B36",
"e  c #36353A",
"r  c #39363B",
"t  c #3C3C3C",
"y  c #373837",
"u  c #2E3435",
"i  c #1D2122",
"p  c #48281B",
"a  c #423E3C",
"s  c #493B37",
"d  c #55342C",
"f  c #673A2E",
"g  c #3C413B",
"h  c #42423E",
"j  c #4B453C",
"k  c #56443F",
"l  c #6A4437",
"z  c #734635",
"x  c #3D3E42",
"c  c #353A42",
"v  c #413F42",
"b  c #483F40",
"n  c #3D4343",
"m  c #3A4649",
"M  c #3C4951",
"N  c #434344",
"B  c #4A4445",
"V  c #454944",
"C  c #4B4B44",
"Z  c #45454A",
"A  c #4A454A",
"S  c #444B4D",
"D  c #4B4B4B",
"F  c #534D4A",
"G  c #554946",
"H  c #53524D",
"J  c #5A5449",
"K  c #444C52",
"L  c #494A51",
"P  c #4B5254",
"I  c #4C545C",
"U  c #485557",
"Y  c #535353",
"T  c #5B5553",
"R  c #55555A",
"E  c #545A5D",
"W  c #5B5C5C",
"Q  c #5B5855",
"!  c #4E5153",
"~  c #66524B",
"^  c #795548",
"/  c #665B59",
"(  c #745953",
")  c #694B48",
"_  c #5C625B",
"`  c #69625C",
"'  c #72655D",
"]  c #5B5C62",
"[  c #555A63",
"{  c #635E65",
"}  c #5B6265",
"|  c #5B666A",
" . c #5A6667",
".. c #5E6B72",
"X. c #636365",
"o. c #646569",
"O. c #646A6C",
"+. c #6B6C6D",
"@. c #696766",
"#. c #736A69",
"$. c #6A716E",
"%. c #77726D",
"&. c #636B71",
"*. c #6B6E72",
"=. c #696976",
"-. c #6C7373",
";. c #66747B",
":. c #6B757A",
">. c #6D7A7C",
",. c #687375",
"<. c #737474",
"1. c #73767A",
"2. c #737B7C",
"3. c #7B7C7C",
"4. c #797676",
"5. c #776F75",
"6. c #814E3B",
"7. c #83554A",
"8. c #805D59",
"9. c #95634C",
"0. c #866259",
"q. c #996858",
"w. c #82726D",
"e. c #95786A",
"r. c #847B75",
"t. c #8B7D7A",
"y. c #857A7A",
"u. c #977A75",
"i. c #936C68",
"p. c #A67D79",
"a. c #B27969",
"s. c #B46C54",
"d. c #7D817E",
"f. c #88827B",
"g. c #95857D",
"h. c #AC877A",
"j. c #CF8972",
"k. c #6E7C81",
"l. c #747D81",
"z. c #7B7D82",
"x. c #727382",
"c. c #867E81",
"v. c #768284",
"b. c #7C8384",
"n. c #7C8689",
"m. c #7C8A8C",
"M. c #7B8787",
"N. c #7E8B91",
"B. c #838484",
"V. c #82868A",
"C. c #838A8C",
"Z. c #8B8B8B",
"A. c #888684",
"S. c #948B84",
"D. c #978988",
"F. c #8B918E",
"G. c #898D91",
"H. c #838C91",
"J. c #8C9394",
"K. c #899598",
"L. c #919394",
"P. c #93959C",
"I. c #989898",
"U. c #96908A",
"Y. c #A48C87",
"T. c #A7938D",
"R. c #A29695",
"E. c #A49C9C",
"W. c #A89B98",
"Q. c #B89C95",
"!. c #B68C85",
"~. c #B7A39B",
"^. c #A8A19E",
"/. c #939DA3",
"(. c #9A9CA2",
"). c #9A99A6",
"_. c #8C9AA4",
"`. c #9BA2A5",
"'. c #9BA4AB",
"]. c #9AA6A9",
"[. c #9EAAB2",
"{. c #AEA4A2",
"}. c #A4A4AC",
"|. c #A7A9A8",
" X c #B4ABA9",
".X c #B5A8A6",
"XX c #B7B2AD",
"oX c #A9ABB4",
"OX c #B3AFB5",
"+X c #A6B2B8",
"@X c #BCB2B2",
"#X c #B4B6BD",
"$X c #BAB7B7",
"%X c #A09FA5",
"&X c #C79C95",
"*X c #CF9C89",
"=X c #C7A49C",
"-X c #D0A895",
";X c #EAB199",
":X c #D5B6AD",
">X c #C4B9B7",
",X c #D8BCB4",
"<X c #C6B0A9",
"1X c #EEB9A9",
"2X c #E19A86",
"3X c #D1C3BB",
"4X c #EFCAB8",
"5X c #B7BAC5",
"6X c #C3BFC4",
"7X c #BDC4CA",
"8X c #C8C5C6",
"9X c #D5CAC8",
"0X c #CBCBD3",
"qX c #D7D8D9",
"wX c #CDD2D2",
"eX c #EDD8CC",
"rX c #FBE6D8",
"tX c #E9E1DC",
"yX c #DBDDE5",
"uX c #E2DFE4",
"iX c #EBE9E8",
"pX c #F9E9E8",
"aX c #FBF5EB",
"sX c #F4F4F4",
"dX c #FDFCFC",
"fX c #FCF9F7",
"gX c #EEEFF2",
"hX c #DFE2E9",
/* pixels */
";.+XU N.N.I +X;.k.[.[ _.P.P.7X5X_.0X_.wX7XN.qXd.wXm.].|.d.7XE 7X! L.R c.|.6 V C C N r x L Z r N q r ",
"k.+XM N.N.I +X| x.[.I K...x.P.[ _.m.N.[.K.K.$Xd.wXm.|.].d.#XE 7X! I.@.4.|.q g C N t e r Z v e v q g ",
"..[.I N.N.U [...k./.I +X=.l./.| ).| N.K.U K. .d.d.$.m.O.l.M.E `.N `.R A.|.3 h V N t e r Z v e v q t ",
"..[.M N.m.M [...l.'.I oX&.x.P.E '.| H.m. .F.U d.,...>.U O.S X.V N r a Y J t g C N x e x Z v t N q t ",
"..+Xg M.m.M +XU 2.P.M '. .b.(.R '.| B.f._ I.].I.[ x.x.[ >.U O.N D x t q 6 t h j N t e x Z N t N y y ",
"d.[.E m.m._ ].E b.K.K }.R >.J.L /.R F.%.J wXaXfX}.[ x.[ &.P _ D N 3 V v q h C V N N x x A Z t N y t ",
"d.N.,.N.M...]. .>./.} '.E b.J.P }.L F.` h.rXrXaXfXP.{ v ,.K _ V V q V 6 g w 6 D N x r x D N x N t t ",
"v.[.U K.m._ +X_ m./.] `.z.l.V.] /.[ b.g.-X4XeXrXaX6XR [ | y  .u Z 4 h 6 6 g g D N N x v D V r V t g ",
"..N.M m.d.m N.U m.N.U ].:.z.G.| _._ f.f.j.;X1X4XrX9X` E O.n o.t Z q y q w w y F N x v N A B t h y y ",
"..[.m N.d.m [.U d.v.m ].L 2.2.P +XV f.g.q.j.2X2X4XeX$.Y o.P [ K g r t q w h V D Z v x N V V t N y t ",
"..[.m m.d.g ].U ;.k.M ].P *.M.P [.M d.f.9.s.j.;X4XeX' J { Z | x N t y h h w h H Z N v x N N w h e g ",
"d.N.m v.d.U ].U :.v.m [.K } <.S ].m f.g.q.j.1X2X-XrXT.j @.r ] u N g w ` _ w t H D Z N N N N g h y n ",
"v.N.U v.v.U ].U 2.H.I `.] *.$.E K.C f.g.i.7.a.a.z !.<XG W v ] Z N H g Y H t V Y D Z N N N a t h g n ",
"N.N.d.N.m...N. .n.G.b.P.b.b.3.$.J.d.f.i.0.f f 6.> ^ ~.~ / R =.W h Y w C h y V H D Z N N N h w h y t ",
"v.N.d.v.d.d.m.d.b.J.:.P.2.<.O.$.Z.@.e.u.) > p a.p c.:X/ @.W X.Y g H h Q H g t C D Z Z N N N w N y n ",
"m.N. .v.m.d.m.d.M.J.O.I.J.@.B.B.F.3.u.h.^ ) f 1Xc.2X,X~ / R W W V Q h H j w y Z L A A N C h t N t g ",
"v.K. .d.m.$.I.2.C.H.3.J.I.F.Z.B.F.F.r.p.q.q.q.;X*Xh.g.l / R X.W V H a F j q g g K Z A V h h g N N t ",
";.K.>.C.C.d.J.$.V.C.b.L.J.d.4.@.Z.B.u.c.q.h.9.9.*X-XT.k +.o.] +.r { j j j g g S K Z B N V h g N v t ",
"d.N.>.M.d.2.L.<.V.C.2.C.z.<.3.+.C.<.5.c.' h.9.z -X*XQ.4./ R ] +.n X.h J j g g m A A B B V n x v t t ",
"m.m. .M.d.$.F.2.V.G.B.G.3.<.f.4.A.#.5.D.^ ' z z 9.e.~.<X+.D O.Y t _ s Q j g U M L A B V V N x Z v t ",
"d.v.U m.d.O.J.2.C.J.b.J.b.4.A.3.A.v.2.3.f.^ l z 7.7.6XpX$Xr A R t E 6 C j g A V A b V N N n t v t t ",
" .m. .m.2. .J.1.M.C.2.G.B.b.Z.3.Z.m.2.$.I.^.l z f 7.eXpXdXOXZ.*.X.Y y Y C h V Y A A A V V N x N h r ",
" .N. .v.2.$.J.3.l.V.l.J.Z.d.3.+.V.-.v.>.XX3Xj f d i.>XpXfXfXfXdXdX`.y V g h C C B b A Z V n g N g t ",
"..v.E v.b.1.G.M.b.C.2.C.V.<.3.3.c.o.>.2.wXXXd p d p.<XtXsXgXsXsX8X7XP ` H g k G b b A V n n t n N t ",
";.N...M.v.d.m.m.b.b.2.H.C.X.+.4.4.5.1.m.8X{.w.^ ( c./ pXfXsXfXiXgXfX|._ D 7 k J ~.F N n m N e a N e ",
"v.m.;.v.m.d.m.K.b.H.l.C.(.2.4.4.c.+.X.#XgX Xg.( c.f / uXyXsXiXiXdXdXsXb.j j s Y.>XT N N V N t e N q ",
"v.m.m.m.M.>.M.m.z.C.n.C.L.<.Z.3.c.c.O.I.iX X{ ( l O c.fX0XfXtXtXfXiXdXqXs d ( =X( s V N m v r A N q ",
"d.N.N.v.d.d.m.d.l.C.m.V.M.O.L.y.c.5.r OX#XF p : > & @XfXyXfXuX9X9XqXfXiX@.s ~.&Xe.s C c n N x b a q ",
"k.m.>.b.d.,.m.d.2.K.2.b.V.O.3.<.c.#.< 9 R 7 & : & 5 6XgXyX9X9X>XT.9XgXfXtX!.=X-XaXk h h v x v a t q ",
"v.m. .v.v.,.b.,.l.C.>.M.3.+.3.$.=.+.q N O { : O & r yXgX0X.X XW.T.9XiXdXdX,X!.4XaX' 6 V A c x v a q ",
"k.m.>.v.v.>.b.| 2.v.:.b.*.O.f.-.2._ +.(.y G o & 1 N iX0X6X>X>X.XD.6XdXpXrX<Xq.-XaX<Xh g Z v e a v q ",
"k.m.m.>.2.$.b.O.2.M.1.2.:.<.3.$.$. .o.W B a o - = v qX%XOX>X6X<Xt.>X>X,XpXeXz *XrXeXC V x Z t e a q ",
"k.m.d.v.$.O.A.d.d.-.} d.2.+.3.$.+.<.X.a c.a . & + h 8Xf. X X>X{.f.T.W.~.:X!.f 1XrXrXf.7 V N q r t y ",
";.m. .;.-.-.d.M.$.d.$.:.4.+.<.Q L.(.1.{ R.5 o - + 6 I.U.{. X@X{.#.U.T.~.p.f 7.,X:XpXg.7 a 6 e 8 t q ",
";.m. .v.2.2.z.B.$.1.1.1.O.X.Z.}.OXW v 5.D.1 # % + 4 y.W.W.@X@X|.J #.Y.T.&Xi.0.:X:XeX%.7 y e x e e q ",
";.m...v.b.<.z.l.O.:.>.-.<.#X{.}.{ v 0 #.G.1   - + 2 D.{.^.@X3XI.H s w.g.Y.Q.h.3X=X,X/ 4 a 3 8 8 e q ",
"k.v.>.>.2.-.z.*.=.x...] 5X}.Z x *./ : R U.& + - + , E. X{.>X>XU.J 4 s 5.u..Xu.Q.g.3X7 2 5 3 0 0 u 3 ",
"k.v.:.>.1.2.c.+.z.z.c.0XP.A X.O.+.F A D.A.. % % % - ^.>X.X@XXXA.D g a G ' Y.Y.XXg.D.: , X = 1 9 8 3 ",
";.v.k.x.z.1.z.+.0XhXH.0X{ ] 1.R T F c.I.c.& ; - - % U.8X@X X XB.Y q V G 4 G / ( j , 2 % o X 1 4 4 9 ",
";.v.N.>.C.*.1.*.).H.x ] P.1.Y Y X.{ y.Y.c.o o % ; ; y.>X@X{..X<.H g N @.4 O 4 4 , : 1 o # * X # @ @ ",
"&.C.n.-.c.+.5.=.Z [ H.Z.] ! +.Q T %.t.R.y.O o * % . #.6X>X^.^.%.Y V Y +.4 - = i i - * . % . # # @ @ ",
",.l.l.-.{ o.5.=.< 8 G.-.R R c.Y F %.f.R.%.  % * - # { .X.X X|.+.A R } Q 3 % i = = = $ . @ . # # @ . ",
">.l.<.*.l.*.x.c.< < z.z.X.W 5.T j r.t.I.w.  % % % X T E.W.W.I.` D H <._ % $ i * - < @ @ @ @ o # @ @ ",
"&.l.=.O.I.1.x.c.< < z.] 3.Y +.B G f.g.T.y.  - @ $ X B {.R.I.U.@.D ! 2.O.i 4 $ $ * < . $ @ @ @ @ . . ",
"5X5X'.G.oX)..X6XI u c.R Z.Y 4.G J S.g.Y.y.  * % * . 3 E.I.R.I./ F Y f.-.% @ @ X < < @ # @ @ . @ @ . ",
"yXyXyXyXyX6X6X0X=.8 o.! +.D <.C j g.r.S.D.O % * $ @ = I..XR.D.T F Q %.d.3 X X X 8 < # @ @ @ . o . . ",
"5X5X5X0X6X5XoXOX=.9 [ 9 Z N o.s j U.t.u.D.& # % * @ # D.9X.XA.T h ` Q <.@.r . 1 c # # @ @ # . @ . @ ",
"5X[.5XoX}.5XoX).=.9 c * = < , 3 ' ~.t.#.A.& @ * * #   @.qX3XS.H J ` #.3.A =.R { 0 . # @ # # X . . . ",
"_.).).).oX}.).).x.8 9 < 1 1 # @ y.6Xt.{ t.& % # * * X v 9XOXA.F Q ` 4.(.O.+.V.R * @ # @ # . . . . . ",
"P.).).).}.).).).x.c 9 1 1 1 * * W.,X{.F r.= X - # * X e 8X$Xy.B _ +.{.8XZ.3.O.8 # # # o # . . . @ X "
};
