/* XPM */
static char *_524761cff474c0d8f9412e091dda4d5wrCKnA7o1l2AoYRU[] = {
/* columns rows colors chars-per-pixel */
"64 64 254 2 ",
"   c #030100",
".  c #0B0705",
"X  c #1D1E1D",
"o  c #1A1713",
"O  c #170E09",
"+  c #231707",
"@  c #241D18",
"#  c #35120D",
"$  c #1F211D",
"%  c #2B241D",
"&  c #26231B",
"*  c #372A1D",
"=  c #372C12",
"-  c #1E1E20",
";  c #1E2120",
":  c #242423",
">  c #2A2622",
",  c #2C2A25",
"<  c #2C2C2A",
"1  c #262826",
"2  c #342C24",
"3  c #3B2E24",
"4  c #322E2A",
"5  c #3A2F2B",
"6  c #352424",
"7  c #3C3226",
"8  c #34322C",
"9  c #3C332C",
"0  c #38372A",
"q  c #362E32",
"w  c #353332",
"e  c #3B3532",
"r  c #3C3A34",
"t  c #3A3A3A",
"y  c #2B2F2D",
"u  c #510F12",
"i  c #42301E",
"p  c #681F25",
"a  c #442C2B",
"s  c #42362D",
"d  c #42392B",
"f  c #413731",
"g  c #433B34",
"h  c #4A3D35",
"j  c #423D3B",
"k  c #4A3F39",
"l  c #473639",
"z  c #553530",
"x  c #6A3637",
"c  c #6A171F",
"v  c #45413D",
"b  c #4C433C",
"n  c #484134",
"m  c #50453E",
"M  c #564839",
"N  c #5B5439",
"B  c #55472A",
"V  c #624A33",
"C  c #7B653C",
"Z  c #3F3D42",
"A  c #453E44",
"S  c #454342",
"D  c #4B4542",
"F  c #4D4944",
"G  c #4D4A4A",
"H  c #494449",
"J  c #514741",
"K  c #534B44",
"L  c #534D4A",
"P  c #594E45",
"I  c #5B5246",
"U  c #55514C",
"Y  c #5B534C",
"T  c #565247",
"R  c #5B5652",
"E  c #5D5954",
"W  c #5E5B5B",
"Q  c #565556",
"!  c #544A53",
"~  c #625A4D",
"^  c #635648",
"/  c #635B54",
"(  c #625D59",
")  c #685E56",
"_  c #71554B",
"`  c #65615D",
"'  c #6B645B",
"]  c #6B6458",
"[  c #716A5D",
"{  c #73665A",
"}  c #72644C",
"|  c #656363",
" . c #6A6561",
".. c #6C6963",
"X. c #6C6B6C",
"o. c #67676B",
"O. c #736C63",
"+. c #726D6A",
"@. c #776C64",
"#. c #797165",
"$. c #75726B",
"%. c #7B746B",
"&. c #777368",
"*. c #747373",
"=. c #7D7974",
"-. c #7D7C7B",
";. c #797674",
":. c #6F6D72",
">. c #5F5D60",
",. c #823138",
"<. c #8C754F",
"1. c #837C6E",
"2. c #867466",
"3. c #837D73",
"4. c #827E7C",
"5. c #887873",
"6. c #957772",
"7. c #A56A6C",
"8. c #7F8173",
"9. c #9A8459",
"0. c #A68B58",
"q. c #A68B55",
"w. c #8B8375",
"e. c #85827C",
"r. c #8B847C",
"t. c #898579",
"y. c #948A7C",
"u. c #968666",
"i. c #A89470",
"p. c #B7A579",
"a. c #827F81",
"s. c #848382",
"d. c #8A8683",
"f. c #8D8A84",
"g. c #8C8B8B",
"h. c #868789",
"j. c #938D84",
"k. c #928E8B",
"l. c #968B85",
"z. c #9C9285",
"x. c #95928C",
"c. c #9B948B",
"v. c #9A988B",
"b. c #968E93",
"n. c #959392",
"m. c #9B9592",
"M. c #9D9A94",
"N. c #9D9C9B",
"B. c #96979A",
"V. c #A39B8C",
"C. c #AA9E8D",
"Z. c #A2978A",
"A. c #A39C94",
"S. c #A39D9A",
"D. c #A79C95",
"F. c #B28E8A",
"G. c #9FA097",
"H. c #ACA293",
"J. c #A5A29C",
"K. c #AAA49C",
"L. c #AAA59A",
"P. c #B2A595",
"I. c #B4AB9C",
"U. c #B7AA9B",
"Y. c #AAA08E",
"T. c #9C9CA1",
"R. c #A49FA5",
"E. c #A4A2A3",
"W. c #AAA5A1",
"Q. c #ABA9A4",
"!. c #ACABAA",
"~. c #A4A4AA",
"^. c #B3ADA4",
"/. c #B2AEAA",
"(. c #B8ADA7",
"). c #BCB3A4",
"_. c #B3B1AB",
"`. c #BBB5AB",
"'. c #BBB6AA",
"]. c #ACACB3",
"[. c #B5B4B3",
"{. c #BAB5B3",
"}. c #BCBAB3",
"|. c #BCBBBB",
" X c #B6B5B9",
".X c #B1AFB0",
"XX c #C3B9A9",
"oX c #C2BDB4",
"OX c #C2BDBA",
"+X c #C9BFB3",
"@X c #D2AFAF",
"#X c #CBC1AD",
"$X c #C5C2B6",
"%X c #C4C2BC",
"&X c #CAC5BC",
"*X c #CBC6B9",
"=X c #D3CBBC",
"-X c #D1C7B8",
";X c #DCD1BD",
":X c #BCBCC1",
">X c #C5BDC5",
",X c #BEC2C7",
"<X c #C5C4C3",
"1X c #CAC6C1",
"2X c #CCCAC3",
"3X c #C4C6CC",
"4X c #CCCDCC",
"5X c #C7C8CA",
"6X c #D2CDC3",
"7X c #D2CECA",
"8X c #D7CCC5",
"9X c #D4D1C6",
"0X c #D4D3CC",
"qX c #DAD5CC",
"wX c #DCDACE",
"eX c #DBD4C5",
"rX c #CCCDD1",
"tX c #CED1D4",
"yX c #D3D4D4",
"uX c #DAD5D2",
"iX c #DDDBD3",
"pX c #D4D6D9",
"aX c #D6D9DC",
"sX c #DBDBDB",
"dX c #D6D8D4",
"fX c #D2CCD0",
"gX c #E4DBCA",
"hX c #E2DDD4",
"jX c #E3DEDA",
"kX c #E7DAD6",
"lX c #ECD3D3",
"zX c #DDE1D9",
"xX c #E5E1D6",
"cX c #E4E3DC",
"vX c #E9E5DA",
"bX c #EDEADE",
"nX c #E9E4D7",
"mX c #F5E6DE",
"MX c #EEE3CF",
"NX c #DCDDE1",
"BX c #DFE0E3",
"VX c #E3E4E3",
"CX c #EBEAE4",
"ZX c #E4E4E9",
"AX c #ECECEC",
"SX c #E8E7E5",
"DX c #F2EDE3",
"FX c #FBECE8",
"GX c #F5F1E6",
"HX c #FAF5EC",
"JX c #F7F6ED",
"KX c #FCF8F4",
"LX c #EDF0EE",
"PX c #E0DDE4",
/* pixels */
",X,X5X5X4XtXyXtXtXpXpXtX5X}.d.#.#.#.#.#.O.#.%.%.w.3.e.r.r.r.f.f.l.c.x.x.v.v.k.g.h.s.*.a.:X:X%X&X{.1X1X_.=XbXLXzXbXnXxXgXgX#Xy.#X",
",X<X5XrXrXyXpXpXpXNXNXpX5X|.d.%.[ #.#.O.#.#.O.&.#.&.%.=.e.e.t.r.d.j.j.j.y.f.h.8.-.:.o.B.:X4X1X&XOXOX%X'.9XCXbXGXbXDXnX;X=XY.;XgX",
",X5XrXrXtXtXtXaXpXpXNXpX4XOXk.3.[ ] ] ] [ O.O.[ O.O.#.%.&.%.8.8.4.3.r.e.8.8.;.X.o.>.| B.|.VX7XOX%X%X}.}.wXvXGXGXGX9X=XwXY.MXMX;X",
"tX,XrXtXyXtXaXaXNXpXNXpX4XOXk.3.I I I I I I ~ ] ~ ~ / / ] ' ' ' ..O.X.O.....( E X.>.>.N.5XJXqXOX&X%X$X$X;XGXbXbX=X*XbXI.gXMX#X-X",
"5XtXtXtXdXdXpXdXaXaXNXsX7XOXm.r.1.1.1.2.1.1.1.w.t.t.t.y.j.z.v.v.M.S.S.J.J.G.m.g.s.>.>.].VXJX9X&X&X%X%X^.vXwXGX9XgXKX=X$XMXeX=X-X",
"tXtXtXtXdXdXaXaXNXNXsXsX7X%Xm.j.1.w.1.w.w.1.1.w.w.w.e.t.t.t.y.f.k.n.c.m.m.k.8.$.8.` W |.JXKX9X&X1X}.$X$X9XGXwXgXvXhX`.nX;XwXMX;X",
"tXtXaXaXaXaXzXaXNXNXBXsXtX&XA.z.#.[ ] [ [ [ [ ..[ [ O.#.&.#.&.&.%.;.;.*.*...W S %...` 0XJXKXwX$X2X&X}.&XzXnXxXnXDX&X8XgXDXeXXXP.",
"tXaXaXaXaXzXaXaXNXNXBXsX0X&XA.c.3.[ ] ] [ [ [ [ [ [ [ O.O.O.O.+.X.+... . .( U S e.X...CXKXJX9X%X9X%X=X*XnXbXDXGX6X%XgXDX-XV.U.#X",
"tXpXNXpXNXaXNXNXBXaXZXsX0X1XJ.z.3.{ / / ) / ' ) ' ( ) +.K.O./  .' ` E E E L S L d.O.%.cXGXHX9X&X9X9X*X=XxXeX*X$X=XxXDX+Xz.-XgXgX",
"pXrXPXaXaXNXpXNXpXaXVXBX4X1XK.v.r.O./ ~ ~ Y / R / / ( / 4. .( E R Q U G F S j T j.;.e.DXHXGX9X=XwX9X%X=X=X9XbXbXbXbX2XV.8XkXgXy.",
"PXPXNXZXZXPXAXAXLXZXZXVXfX&XK.c.d.@.) P Y ! Y Y Y / R / L R E U L L F v A g j Q x.t.y.GXGXbX6X6X9XwX$X*X;XJXGXnXxXwXD.=XnX;XZ.-X",
"B.T.T.T.T.R.R.T.~.~.~. X7X<XW.Z.6.$.( L Y P P Y L ! P ! ~ ! L F F D F S j r j Y M.j.j.CXDXbX7X0XwX*XwX*XzXwXnXbXxX'.qXvXgXC.+XP.",
":X~.].].:X:X:X>X:X X~.B.7XOXK.c.r.$.) J K K K L P P E L k.( L L b v v v j r j R J.V.v.bXbXbXhXqXzXxX=X*XnXKXxXxX6XiXkX=XP.=XXXXX",
":X3X,XpXPXpXPXZXPXZX3Xg.7XOXS.m.r.#.O.K b m b K J D L D  .Y D v v v t r t 0 g U L.L.V.gXbXvXuX0X9XdX*X9XnXeX9X9X9X8X&XXX8X-X+XXX",
",X,X3X3X>X:XtX3XpXNX4Xb.fX<XS.Z.r.2.%./ K K K J P J P U g J b v v r r 0 w w g Y L.L.z.hXnXhX9X7XxXzXzXzX$XwXnX9XqXeXnXmXgX;XXX#X",
"].B.~.o.:.B.~.>XAXNXrXS.7X>Xm.Z.y.1.3.' Y ~ Y Y Y Y R K E Y F F v n v v j w g Y I.L.V.nXGXxXqXqXvXbXzX$XxXbX*XqX%X&XXX+X+X#X-X+X",
"3X:XS.=.Q ..+.7XBX:X>.-.yXOXH.c.l.J  .O.( E R R R E U Y E T L L S S v r v r n I ^.L.v.vXhXhX0XiXDXzXwXwXxXwX9X9X8XxXhX6X8X=X).V.",
"o.! 5.$.L l 4.+.Q G ; *.uXOXY.M.c.g k O.( ' R R Q U / ` Y E / F F S S t v 0 r E ^.I.j.eXqXhX0XkX9XCXwX9XxXeXeXqXDX2X1XeX+XI.I.I.",
"A A l e D b e.U y t y s.yX|.M.v.M.g r ( `  .' R  .E W T Y / K L G F F v v n r / Q.L.x.jXuXvXhX0XvXzXhXwXxXxXhXxXoXOXoX`.'.).).#X",
"R.a.@X=.2 b e...t t y ;.rX%XG.G.A.T 4 / E W L U F F Y +.%.R b b j t t w r j 0 R K.L.j.6XuXjX0XjXwXnXwXzXxXnXxX}.8XqXnXkX=X$X#XI.",
"5.2.{ 6.] d 1.1.! A r 4.fXOXS.D.S.F > g ` 8 : 8 8 E g v J 3 % O X o o o & r n ] ^.M.j.wX4XqXiXcXvXzXcXxXbXiX$X9X`.K.^.&X&X*XXXV.",
"6 a ^ { h a y.Z.O.l k s.fXOXD.R.W.R o 8 R 8   o v v =.' n n @ o         $ v r ` L.L.j.9XkXwX0XVXvXCXxXwXqX9X9X6X6XwX8X*X$XXXI.P.",
"z a M 2.n N u.2.y.! P a.lX>XD.b.W.( > 4 ( 8 . o S v ) W.`.d. .R $ .     > v n E Q.m.r.1X4X0XiXcXCXiXvXvXvXxX9X9XjX&XoX&X$X'.^.V.",
"s a M } B M } N ) J P b.>X>XD.D.W.( , S R 8 . 4 4 R k.&XuXoXA.r.F $ O   > r t ` J.M.r.%XqXsXiXjXiXvXiX0XvXxX*X&XOX7XqXeX=XXX^.).",
"l z _ B V z { N ~ J P r.uXOXA.A.W.( F H Q r o w o $ $.%X0X1X^.t.X.y 4 o , t b ( S.m.d.2X4XdXsXVXzXCXGXzXxXwX=XiXjXwXK.x.K.^.H.1.",
"z M _ _ 2.} } C P b 9 3.sX}.D.A.K.E R ( ` e o w O , v e.r.=.r.Q.$.r , 8 4 j e  .A.x.e.1X4X9XdXcXbXzXvXbXDX9X2XQ./.c.^.oX+X`.L.XX",
"a z x V _ z V V @ 6 2 1.iX%XY.v.S...=.( O.r 1 < X , e v $.+.=.e.$.L 4 < , S t ( m.f.4.<X4XiXcXSXiXCXCX0X9XwX^.'.1X1XoX`.'.$X*XXX",
"_ 6.F.i.6.7.z.y.6.l.A.k.0X%XM.v.K./ 4.+.X.v < O > 8 , W m.L r ..*.Q 8 4 e v j ( n.f.-.%X2XyXdXzXzX0X0X0XbXwXjXcX1XK.{.8X=X}.Y.y.",
"lXlXFXFXFXFXHXnXKXKXKX~.yX5Xv.G.K./ T ..+.G 4 S 8 w t | g.j v y R Q j r e v t ( n.s.=.|.<XyXpXiXCXCXCXwXvXuX%XL.Q.6X&XJ.M.'.XX'.",
">X>X X3XjXkXkXDXAXZXNXR.dX&XA.c.A.' U Y =.F : v W S E G =.t : o , U H v , H j W g.e.;.|.<XaXiXcXcXyXzXcXiXiX$X&X7X%Xr.M.}.D.V.Y.",
"R.o.! *. X.X/.<X>X>X:XF.jX1XD.D.L./ R Y =.Y L R 8.H Q S G ..w 1 & j S H w j t | k.4.-.[.%XdXpXzXcXLXiX%XcX9X2XoX^.j._.qXqX=X).v.",
"h.Z y o.N.b.k.R.~.~.T.a.kX7XZ.Z.D.' 8 P d.F o ..n.g.f.W t v S U y S L g 4 A j E g.-.*.[.<XzXiXVXCXzXcXvXbXbX6X%XOX2X&X_.L.'.'.}.",
"o.: - H g.g.-.B.N.R.b.c.jX6XH.z.G.E 9 Y j.R 5 & k +.M.b.=.L < 4 w v t < 4 S D R h.a.:.:X>XaXcXjXdXjXDXhX=X$X}.$X%X}.Q.v.s.=.=.t.",
"t : q 6 Q X.Q ..:.:. .s.jX2XM.M.A.] L ( d.Y n b 8 K ' +.;. .F e w e 4 > , j S R a.-.:.:X5XfXsXcXVXbXvXcXCXvX%X}.}._.}.}.'./.J.v.",
" X X{._.[.!..X.X{.>X1X7XSXiXA.x.V.[ [ #.c.@.Y I ~ ) R K D h k D v j r r j S A W h.;.o. X<XyXsXVXcX8XuXCXcX9X}.'.$X%X}.}.&X&X'.'.",
"AXAXVXVXCXCXKXFXFXFXCXLXzX2XH.c.x.Y.6X).L.y.w.l.w.l.5.1.1.+.@.O.' E U U T G j E a.;.o.].>XaXBXsXiXVXcXqXwX=X_.Q.M.J.|.%X_.J.x.8.",
"AXLXLXSXKXmX@X@X@XFXKXJXzX9XL.v.j.P.gX`.P.D.D.C.).+X+X&X*X(.V.3.=.O.' R L G v ( a.-.o.:X5XaXzXdXuXsXDXbX0X7X$XQ.}./.M.m.J.A.x.x.",
"LXAXLXDXFXF.x p z @XKXVXzXzXL.y.j.L.=X).H.C.P.P.P.).XXXX^.D.z.r.#...] Y L J v W s.*.o.:X5XpXBXBXVXcXdX0X0X&X}.9X{.&X4X[.J.Q.^.V.",
"CXJXAXDXmXF.7.p p F.FXvXvXiXZ.Z.l.C.+XU.U.C.C.P.).U.U.U.P.C.y.1.O.' E I T L b W s.:.o. X,XaXBXLXVXcXcXcXzXwX$XJ.7X_.k.d.e.&.e.J.",
"AXSXSXbXmX7.x c p 7.mXwXhXhXA.c.y.Z.XXU.P.P.C.P.P.P.(.P.C.V.w.1.#.{ ] T K K S ` -.:.o. X5XBXBXaXsXVXSXcXcXzX%X%XM.m.A.Q.|.}.M.#.",
"AXJXCXbXmX_ u u # <.mX8XkXkXD.y.y.Z.P.U.U.Y.Y.P.P.U.P.Y.C.y.w.2.O.) ~ I T T v W 8.;.o.].tXtXBXZXdXzXLXzXVXzX%X%X%XOX{./.S.D.Q.Q.",
"dX7X2X8XlX7.u # = ).+XXXnXkXD.l.y.y.P.P.U.P.Y.Y.P.P.P.C.C.y.3.2.@.' / T m K v ` s.:.o.:XtXaXBXZXCXdXzXtX&X&X,X%X|./.Q.E.W.S.x.A.",
"n.x.x.l.z.y.u # n t.8.8.8XvXV.y.w.y.Y.Y.U.Y.C.p.P.C.C.Z.y.y.1.@.' ~ / I K T v E -.*.*.].4XVXBXVXaXzXVXzXVXdX[.%XOX&X<X2XOXJ.A.v.",
"4 8 e 0 a 0 0 d 0 & 0 r oXbXV.y.w.y.Y.P.P.Z.Z.V.C.C.C.Z.z.y.5.#.' ] Y L F U v U :.W o.~.:XdXVXLXzXaXzXzXCXzX%X}..XE.S.g.M.}.K.f.",
"8 e 8 0 7 0 0 0 r r r y *XvXV.w.w.t.i.w.u.#.#.2.2.%.#.@.{ ] Y L U v g 8 9 D L ` *.o.Q g.*. XBXBXLXBXBXzXdX2X[.!.[.E.k.d.4.=.M.W.",
"4 , 2 7 0 0 0 y 4 r 0 y %XvXv.y.w.t.t.[ I I ~ ^ ) ) ) ~ Y Y J b r 8 4 , % r U ..s.:.X.-.s...Q.CXyXAXAXzXVX7X}.}.[.OX|.S.K.c.=.j.",
"< 8 0 8 8 8 e r l a 9 0 %XCXv.t.w.#.O.~ ^ ~ } ] { @.O.' ) / Y K v v r 8 , r b Q -.-.| h.B.n.-.E.pXzXVXVXzXdX%XJ.Q.E.|.7X}.^.^.e.",
", y y < e 2 e 9 f g 9 y $XzXy.t.8.N N I ~ E ~ ] ) ' O.` / Y G v g e 4 < , r D L h.s.g.-.s.8.=.$.N.4XVXVXcXdX,X[.Q.!.W.k.E./.Q.K.",
"& , , 0 8 < 8 7 0 7 7 7 oXvXr.8.~ r b I I ~ ^ ~ ~ ) ) / R L L F v e 8 2 , e G G a.g.h.h.a.s.a.g.o.n.zXVXzXzX0XtX4X!.!.~.s.8.;.=.",
"y $ 0 1 < e 8 e 7 r 7 s *XxXk.&.g 7 b N K Y ~ ~ / ( ) ( / U K b t 8 8 , > w F F a.h.a.g.n.M.N.~.N.*.}.CXzX<X!.Q.}.|.T.!.Q.G.N.k.",
"& * & $ > > & & 2 , 4 1 Q.sXk.b 7 0 m J m Y I I / / / ( E Y F j r 9 8 , > 8 S S Q o.o.g.T.E.!.|.!.J.n.Q.4X9X,X}.!.G.|.g.N.k.e.;.",
"O O + + + + + & . O O . |.JX8.0 0 n m b m I P P P Y Y R Y Y D g r 8 < , & 8 t v H Q H :.T.!.!.!.!.!.E.Q.k.x./.G.!.}.B.Q.n.M.M.x.",
"C <.C <.9.u.p.B + o o o J.).N = n d n n m K m K P ! P P L L D g e 4 4 % & 4 e A ! Q t H o.o.o.o.| >...( ( &.&.G.m.S./.m.E.x.e.-.",
"<.q.q.q.i.p.N + = + % * ] [ N n d g n n b n b J J P P K K K k g e 9 4 % & 2 e g H Q Z q 1 - : < $ $ 1 & v *.E ` M.n.E.E.f.J.Q.f.",
"q.q.q.p.p.B = = & 7 & 0 [ [ N n g n g n n g b b m J J K J D n g 9 9 2 % % > w j H Q Z Z q y y q y 0 y 8 v &...&.( W.W.W.k.d.e.J.",
"q.q.q.q.V = i i 2 4 0 r O.&.N B d g f f d h b k m J J J K J D h 9 9 2 % % 2 4 t G H Z q 1 1 1 < y 4 y 2 b 8.b T  .;.m.M.W.j.=.&.",
"<.0.<.V = a 5 5 q f e k @.@.P k g g f d g h k b b J K J J J k h 9 3 3 2 % % 4 g G G H w 1 1 < < y , 1 0 v t.8.m ) k.m.k.m.W.x.e.",
"0.9.V = a 5 q A q l e b ) ' P k f s f f g d k b b m J J J J J k s 5 9 3 * % 4 r G G S q 1 1 1 y 0 , y , r ..&.t.J %.[.S.d.f.x.A.",
"2.B d d a f l t r g g b ^ ) P k f f 9 f f f n b b b k J J J m k s 7 3 3 * 2 5 e H L A q 1 1 1 1 1 , 0 , b 8.] T +.(  .S.B.f.g.d.",
"N i d g g l e g g h h m P ^ P z f f 9 9 g g g n b m m m J m b h s 9 7 3 2 * 5 e S H A y : - : 1 1 1 1 0 r &.&.T D O.k.e.x.k.r.-.",
"7 b 0 f J A l l A b m J P P J h f s 9 s e g g h b b D m m m h h d 7 3 3 * 2 3 8 j G A < ; ; ; ; 1 1 , y 0 E &.&.' ` 8.J.x.m.k.h.",
"b n k b l k A g m D K K K P m h f 9 9 5 s f g g h h k b m m h z d a * * * 2 2 2 r H A q ; ; ; ; $ 1 1 & r ] ~ ( ` x.N.k.N.k.x.8.",
"H A G H J k s A k K L L L K b n f 9 5 5 9 9 f f g g h b m h h h s * * * * 2 2 % 4 j A < - - ; ; 1 $ $ $ 0 E Y ' L ` h.J.E.B.8.~.",
"A ! H K P k h k k K L L J b b n 9 5 2 3 2 5 9 f g g h k m h a s a * * * 3 3 2 2 @ q Z < X X ; ; X $ $ $ y T E T &.` >.s.G.G.x.*."
};
