/* XPM */
static char *_7da9abed10e4ca0b120623119bd34be4k8Hgtq11B2pq9KE[] = {
/* columns rows colors chars-per-pixel */
"50 50 83 1 ",
"  c #A09077",
". c #A1927B",
"X c #A3937A",
"o c #A2947A",
"O c #A3957B",
"+ c #A1927D",
"@ c #A2937C",
"# c #A2937E",
"$ c #A3947D",
"% c #A3947F",
"& c #A5957C",
"* c #A4967C",
"= c #A5977D",
"- c #A6967C",
"; c #A6967D",
": c #A7977D",
"> c #A4957E",
", c #A5967F",
"< c #A7977E",
"1 c #A6987E",
"2 c #A7997F",
"3 c #A8987F",
"4 c #A9997F",
"5 c #A49580",
"6 c #A59681",
"7 c #A69780",
"8 c #A79881",
"9 c #A99980",
"0 c #A89A80",
"q c #A99B81",
"w c #AA9A80",
"e c #AA9A81",
"r c #AB9B81",
"t c #A89982",
"y c #A99A83",
"u c #AB9B82",
"i c #AA9C82",
"p c #AB9D83",
"a c #AC9C82",
"s c #AC9C83",
"d c #AD9D83",
"f c #A99A85",
"g c #AA9B84",
"h c #AB9C85",
"j c #AD9D84",
"k c #AC9E84",
"l c #AD9F85",
"z c #AE9E84",
"x c #AE9E85",
"c c #AF9F85",
"v c #AC9D86",
"b c #AD9E87",
"n c #AF9F86",
"m c #AE9F88",
"M c #AEA086",
"N c #AFA187",
"B c #AFA089",
"V c #B0A086",
"C c #B0A087",
"Z c #B1A187",
"A c #B1A188",
"S c #B0A288",
"D c #B1A389",
"F c #B2A288",
"G c #B2A289",
"H c #B3A389",
"J c #B0A18A",
"K c #B3A38A",
"L c #B2A48A",
"P c #B3A58B",
"I c #B4A48A",
"U c #B5A58B",
"Y c #B2A38C",
"T c #B3A48D",
"R c #B5A58C",
"E c #B4A68C",
"W c #B5A78D",
"Q c #B6A68C",
"! c #B7A78D",
"~ c #B4A58E",
"^ c #B6A88E",
"/ c #B8A88E",
"( c #B9A98F",
/* pixels */
" X&snCCnQIAmnCAAssss4z44z4-:44VVHV4VV4VVV4V44VVzVV",
"X&3unnCCAAAACCAAnssVV4Vz44::4zV4H4zVHV4VVVVVV4VVMM",
"&3uunnAAnnnnCCCCVVCVVVzzV4434VVVHV4VHHVVVVV4VVVVZL",
"uuuuunCAsnnnCCCnFHHHHVVVHVzVHHHVH4VH!!HVVVVVV4VVZL",
"uuuuusnnsnnnnnnnCHHHHHVVHVVVHHHFF44V!QVVV4V44VzVZZ",
"3u3uusnnnnnnnnnnVVHHHHVVFV4VVHVVV44VVH44VVV44VzVLL",
"uuuuunnnAAnnnnnC4VVHHFVVVV4VVVV4V444V44VVV44V4VVLL",
"uussnnCAAAnsnnnC4zVFHHVVVVzVHFVVVVVVVVVVVVVVzVVVMN",
"&&usnnCCunnnnnnuV44zVVVV4VVHH!HFQHV4VV4VzMVVVVVVNL",
"uuunnnnnsCCnnCns4VVVVVVVVVVHHHHH!!FVVVzVVVVVVHHHNN",
"ussnssuusnnnnCnnVVVVVVVVHVVFFHHF!HVVVVVzzVVVVVZCNN",
"uuunnuuuusnunCnnzzVVVFVVVVV4VFHHHVVVVVVVVVVV4444NN",
"ussnnnnsussuuCCnz4VVFVFVVV4zzVHHVVVVVHHFVVVVVss4LL",
"usnnnnnnnCnnnAAnzVVHVVVFVV44zVHHVVVVHQHHFFHHII!Q^^",
"nnnCCACnnCnssnCn4VVVVHVFVVV4VFVVFVVHH!HHVVFHQ!((^^",
"nnCAAACnnnnuunnnVVVFFHHV!HHVVVVVHFVFHHVVVzVVCCLLLL",
"NNLNLNNMMMqMMNNNHZMMNNMMMNNNNNMMNMMMMMMMqMqMMMMNNM",
"NNNNLNNM2MqqMMMMVMMMMMMMNNNMNNNNLLLMMMNNMqMMMNNMBB",
"MMMMNNMMMqqMMMM2MMNNMMNLMMMMNNNNLNNMMMMNMMMNNMMMNN",
"2MMMNMqMMM2MqMM22MZZMNNLMMMMMNNNNMMMMMMMMNLLLNMMNN",
"MMMMMM2MMqMMNMMM2NLZNNN^MMMMMMMMMMMMMMMMNLLLLMMMLN",
"qMMMMM2qMMMMNNMqMMNNMNNLMMMMMMMMNMMMMNNLLLNNNMNMLN",
"2222M2M2MMqMMMMM2MMMMMMNMMMMMM2MMMMMNLLLNNNMMMMNLL",
"==222M2M222MMMMqM222MMMqNNMMM2M2MMMMMMMMLNMMMMML^L",
"22q22222M22MNNMMMM2M2MMNM2MNNMMqNM2qMNMMNNMqMMqMMM",
"=2222222M222NNMM2q222MMMMNNNMMMMMqqMNNMMMNMMqqMMMM",
"====2222222qMMMMM222Mq2qNNNNNNNNMMqMLLLMMMMMMqMMNN",
"=====222M222MMM2NMqMMMMMNLNLNNNNMMNLLLLMMMMqMMMMLL",
"==22=2222qMq2MqMNMMMqMMqNNNLLLNNMMMMLLNMMMqMMMMqLL",
"===22=22M22MMMMMMMM2MM22MMNNNNNMqMMMMMMMMqqqMMqMMM",
"==2222222M2M2qMMM22MMMM22qMMMMMMqqqMMMMMMM2qMMMqqq",
"22q2222222M2M2qqMMMMNMMqM22qqMMNMMMMMMNLMq2qMMMMqq",
"=688888g88tggggtqqMMMMqqqqqqqMMLMMNNMMMMqMqMMMMMbb",
"==888888tuggbbggqqMMMqqqqqqqqqMMLNNLLMMMMMMMMMMqmm",
"%888888gbbbBbbgbqMMMqqqqqMMMMMLLNLLLLNNMMMMMMMMMBB",
"88tq88gggbbggbggMMMMMqqqMNNNNNLLLLLLLLLLNLLMLNMMTT",
"88g88qggggggggBbMMNMMMqqMMMMMMMLNLLLLLLLLLLLLLNNTT",
"88888tgmggggbbBBMMMMqMMqMMLNMMMMMMNMLNNNLLNLNLLLYY",
"8888818gggt8tgggqMqMqMMMMNLNNMMMMMMMMNNMMMMMNMMMTY",
"86=%%%8ggt166888qqqqqqMMqqMMMqqqqqMMMMMMqMMMMMMMTT",
"8&1&%16886&88u66===12q21q2q22q2q1qqqqMMqqqqqMMqqBB",
"61%%&%%&&%o%88&%11=1qq112q2qq2qq111qMMMqqqqqqMMMBB",
"%%%%%%%1%%o%o%%X=o1qqqq11qq111111=1qqMMqq212qqqqBB",
"&11&%1%61%%oo%+o=o12qq1111111111=o12qMMqqq1qqqqqgb",
"816%86188&&%+o%%===1qq1111111111===1qMqq1=11q2q18u",
"868&&&6&681%%%&111=12qq1111q11u1o=11qqq1==o=1q1168",
"%%%%+%&%611%o%8u11o=1qq2q2q2qq1q1111qq11oooo=11188",
"oo...X%o%66+X%&f21==11qq2q2q1qqq=111q211=ooo=11=ug",
"%%++66%++6+%+6681%o111111qqqq11o188888868%o.%186ff",
"%+X%+6666++++6661=1111111qqqq1o18&8888%88%..%181ff"
};
