/* XPM */
static char *_c6cda0f68ac4901ae05e08f464314b3kWCtsB7Z26aqLpA6[] = {
/* columns rows colors chars-per-pixel */
"50 50 213 2 ",
"   c #8F5933",
".  c #915634",
"X  c #925735",
"o  c #925737",
"O  c #915934",
"+  c #905A34",
"@  c #915B35",
"#  c #935836",
"$  c #935B36",
"%  c #945937",
"&  c #925C36",
"*  c #935D37",
"=  c #945C37",
"-  c #965C37",
";  c #935838",
":  c #945939",
">  c #955A38",
",  c #965B39",
"<  c #955A3A",
"1  c #925D3B",
"2  c #975D38",
"3  c #945E38",
"4  c #955F39",
"5  c #965E39",
"6  c #975C3A",
"7  c #975F3A",
"8  c #935E3C",
"9  c #975C3C",
"0  c #985E39",
"q  c #985D3B",
"w  c #995F3A",
"e  c #995E3C",
"r  c #9A5F3D",
"t  c #995E3E",
"y  c #9A5F3F",
"u  c #96603A",
"i  c #97613B",
"p  c #95603E",
"a  c #96613F",
"s  c #98603B",
"d  c #9A603B",
"f  c #99613C",
"g  c #9B613C",
"h  c #98623C",
"j  c #99633D",
"k  c #9A623D",
"l  c #9B603E",
"z  c #99633F",
"x  c #9B633E",
"c  c #9A623F",
"v  c #9C623D",
"b  c #9C613F",
"n  c #9D633E",
"m  c #9A643E",
"M  c #9B653F",
"N  c #9C643F",
"B  c #9E643F",
"V  c #985F41",
"C  c #926140",
"Z  c #936140",
"A  c #976041",
"S  c #976240",
"D  c #966441",
"F  c #956443",
"G  c #9B6040",
"H  c #986341",
"J  c #9A6241",
"K  c #9C6141",
"L  c #9D6240",
"P  c #9E6341",
"I  c #9A6641",
"U  c #996442",
"Y  c #9A6543",
"T  c #986643",
"R  c #9D6540",
"E  c #9C6441",
"W  c #9F6540",
"Q  c #9C6640",
"!  c #9D6741",
"~  c #9E6641",
"^  c #9D6542",
"/  c #9F6742",
"(  c #9C6345",
")  c #996444",
"_  c #986645",
"`  c #9B6644",
"'  c #9C6644",
"]  c #9C6745",
"[  c #9E6842",
"{  c #9F6943",
"}  c #9D6846",
"|  c #9E6947",
" . c #9C6A47",
".. c #9F6A48",
"X. c #A06641",
"o. c #A06543",
"O. c #A16742",
"+. c #A16644",
"@. c #A26745",
"#. c #A16646",
"$. c #A06843",
"%. c #A26843",
"&. c #A16944",
"*. c #A06845",
"=. c #A36944",
"-. c #A06A44",
";. c #A16B45",
":. c #A26A45",
">. c #A16946",
",. c #A36846",
"<. c #A06A46",
"1. c #A36B46",
"2. c #A26A47",
"3. c #A46A45",
"4. c #A56B46",
"5. c #A06C47",
"6. c #A26C46",
"7. c #A36D47",
"8. c #A46C47",
"9. c #A66C47",
"0. c #A06B49",
"q. c #A36B48",
"w. c #A26A49",
"e. c #A36B4A",
"r. c #A66B49",
"t. c #A56A4A",
"y. c #A26C48",
"u. c #A26E49",
"i. c #A36F4A",
"p. c #A56D48",
"a. c #A46C49",
"s. c #A76D48",
"d. c #A46E48",
"f. c #A56F49",
"g. c #A56D4A",
"h. c #A76C4A",
"j. c #A76F4A",
"k. c #A66E4B",
"l. c #A36E4C",
"z. c #A76C4C",
"x. c #A46F4D",
"c. c #A76F4C",
"v. c #A86E49",
"b. c #A96F4A",
"n. c #A86D4D",
"m. c #A96E4C",
"M. c #AA6F4F",
"N. c #A4704B",
"B. c #A6704A",
"V. c #A7714B",
"C. c #A7714D",
"Z. c #A5704E",
"A. c #A6714F",
"S. c #A4724F",
"D. c #A8704B",
"F. c #AA704B",
"G. c #A9714C",
"H. c #A8704D",
"J. c #AB714C",
"K. c #A8724C",
"L. c #A9734D",
"P. c #AA724D",
"I. c #A9714E",
"U. c #AB704E",
"Y. c #AB734E",
"T. c #AA724F",
"R. c #AC724D",
"E. c #AC714F",
"W. c #AD734E",
"Q. c #AA744E",
"!. c #AB754F",
"~. c #AC744F",
"^. c #AE744F",
"/. c #A66F50",
"(. c #A77250",
"). c #A67453",
"_. c #A87250",
"`. c #A87351",
"'. c #A87353",
"]. c #AE7351",
"[. c #AA7450",
"{. c #AB7551",
"}. c #A97452",
"|. c #AD7550",
" X c #AC7451",
".X c #AF7550",
"XX c #AC7650",
"oX c #AD7751",
"OX c #AE7651",
"+X c #AF7452",
"@X c #AD7753",
"#X c #AE7653",
"$X c #AB7254",
"%X c #AB7654",
"&X c #AD7554",
"*X c #AC7755",
"=X c #AD7755",
"-X c #AF7754",
";X c #AE7852",
":X c #AF7953",
">X c #AF7955",
",X c #AD7856",
"<X c #B07651",
"1X c #B17752",
"2X c #B27853",
"3X c #B37954",
"4X c #B07A54",
"5X c #B17B55",
"6X c #B47A55",
"7X c #B57B56",
"8X c #B27C56",
"9X c #B37D57",
"0X c #B47E58",
/* pixels */
"Q m 3 m K.K.{ { Q j m 7.K.V.{ Q j v v.<Xv.v.v.B v v.R.v.X.X.v $ -.F.7.m M m i { !.7.M { m h { XXN.N.",
"Q Q m m 7.m 3 Q m j Q { Q i j Q X.v =.4.v W 4.X.v =.%.v v W X.w -...i * { M h M 7.h i m M m M 7.I D ",
"XX4XXXK.K.-.{ V.!.!.XXK.-.m 7.XX7XR.R.v.%.v.<X.XJ.R.v.4.4.<X<XXX^.K.B m XX:X!.!.K.M M K.4X:XK.K...] ",
"f.K.7.{ -.m 3 7.f.-.7.{ j i Q K.v.X.%.4.w X.v.s.X.4.X.v B v.K.4.{ M i i V.!.d.d.{ u i 7.!.K.d.7.D 8 ",
"-.{ i j -.Q j { Q j j Q Q Q -.f.v d X.4.v X.4.X.v X.X.X.X.s.=.w s { m m 7.7.m M { m m 7.7.M M d.] _ ",
"K.f.Q -.4X:XK.K.V.-.-.V.:X:XXX!.=.X.R.3XR.R.R.9.%.R.<XR.^.<Xv.j V.:X:X!.!.d.M -.4XXXXXXXV.{ 7.XX&X&X",
"-.{ 3 m K.K.{ { { j m -.V.7.-.-.v v 9.R.4.4.4.B v 9.b.4.=.4.X.w 7.K.d.{ { m i M K.d.7.d.M i m V.C.x.",
"{ m 3 j V.-.j m { j j Q -.m i j X.v 4.s.X.W X.v r 4.9.X.r v X.j B 7.m i M m h 7.M h h M M h { V.{ _ ",
"!.4XXX!.XX7.Q f.!.XX:X!.7.Q f.4X<XR.R.v.X.v.2X.X^.R.4.W 4.<X3XR.:XV.m m !.:X!.!.K.{ M K.4X:Xd.7.w.D ",
"K.!.7.{ 7.{ j { V.f.f.-.Q j { f.J.9.9.X.w %.R.m.=.=.B w d v.R.9.%.-.s m V.!.7.V.{ h h d.!.d.-.-.) 8 ",
"7.-.i 3 { m j -.-.Q j m Q Q Q -.W v X.X.w W v.X.- v W d v X.X.3 s M m m 7.{ i M m h h 7.7.h m { ..J ",
"f.7.{ -.:XXXK.4XV.-.{ V.XX:X:XXXX.4.<X7X.X<X<XX.B J.7X3X<XR.%.3 V.4XXXK.K.7.M d.XXK.!.:XK.{ -.XX'.(.",
"Q Q 3 Q K.K.-.V.Q j j -.!.K.f.7.w B F.^.v.v.v.v v s.<Xv.v.4.v O 9.K.d.{ { M i { !.d.d.7.M h M K.'.[.",
"Q m i i 7.m * i m i j { -.m j m B d X.B w v 4.X.v X.X.w 2 W X.v m { i u M m h { { h i h h i M d...I ",
":X4XK.V.!.f.Q f.4XXXXX!.V.-.V.XX4X^.R.v.X.m.7X2X<X<Xv.X.4.XX7XR.K.K.-.-.:X4XXX:XXX-.{ K.4XXX!.XXD 8 ",
"K.XXf.{ -.m j 7.K.!.K.7.j i -.:XK.9.v.4.v -.R.v.4.4.-.v X.v.v.Q d.-.h m XXXXd.-.d.h h V.XXK.{ M ..J ",
"y.{ * O Q Q j Q j i 3 j j Q Q f.Q i j Q i m %.i i m Q j Q -.X.* h M M h M h * h M m M d.{ h h { J D ",
"XXK.Q 7.4XXXf.K.f.-.f.K.XXXXXXXX-.%.C.2XV.!.!.{ { !.XX!.K.XXf.Q K.4XXXK.XXd.{ K.4XXXXX:XK.{ d.:X'.[.",
"%.I 3 Q !.K.{ Q Q j Q f.!.f.-.Q i i V.:XV.7.7.Q * -.!.V.-.-.Q 3 d.K.d.{ -.M m 7.XXd.-.-.m u M !.(.(.",
"m m 3 j f.Q 3 j j j m -.-.m j Q i m 7.V.{ m -.m i { -.Q j Q Q 3 M { h i { M h M -.h i h m h h -._ I ",
"!.:X!.V.!.-.{ K.XXXXXXK.f.Q V.4X:XK.!.K.{ { !.:XK.!.V.-.f.XX4XK.K.V.M M XX4XK.!.K.M M !.4X:XK.!.] ) ",
"!.!.V.7.-.j j f.!.K.f.f.Q j -.4X:XV.7.{ i m V.!.f.f.Q i Q K.K.f.7.-.i h !.XXd.d.{ h h K.:XXXd.7.J D ",
"{ { i i Q j 3 Q { m i j Q j { -.{ m m { i m 7.{ 3 j Q j j { Q j h M i i { { h h M i i M { h h M ) D ",
"!.V.{ 7.4X4XK.!.K.-.-.K.4X9XXXK.7.m K.:XXX:X:X7.Q K.0X4XXXXXK.-.!.9X:XXXXXd.-.d.0X:XXXXXV.{ d.:X&X[.",
"{ B * i V.V.-.d.Q Q Q K.XXK.7.-.j j K.4XK.f.-.j j f.XXK.f.-.Q 3 d.XXV.{ M h i -.!.7.7.N.%.j Q !.[.(.",
"m m i i { i * m j j m Q j 3 3 j j j Q -.j m Q j j Q Q j i Q m j M { i * m M h { { i * m I j Q -.) D ",
"!.:XXXK.!.-.M V.XXXX:XK.-.Q f.4X0X!.K.K.Q f.XX:XK.XXf.{ -.XX4X:X!.K.M { XX4XXX:XV.m m V.2X:X!.!.] _ ",
"V.!.N.7.7.m h 7.V.V.K.f.{ j 7.XX!.7.f.-.m Q !.K.f.-.{ j Q K.XXf.-.7.h m !.XXd.d.-.i i 7.!.V.f.-.8 8 ",
"7.{ u u { m m 7.j j i j Q m Q -.j 3 Q -.j m -.Q j Q m i Q -.Q i h M m h -.{ i h M i h ..-.m i I _ J ",
"XXV.m { :X:XV.:Xf.-.-.V.XX4XXXXXQ -.K.4X!.K.XXf.-.K.XXK.K.XXf.j d.XX!.K.XXd.M -.^.!.XX:X!.{ -.!.&XXX",
"7.{ i m !.K.{ 7.f.{ { f.XX!.f.f.m j f.XXf.-.f.Q m f.K.f.7.-.Q 3 d.K.7.{ d.M h { K.d.d.d.-.B { [.[.x.",
"h h * i 7.{ * i Q i j Q Q j i i j 3 Q f.Q Q Q j 3 -.f.j j j j 3 M { i u m M i M { M h M I 3 Q C... .",
"!.:X!.V.!.7.{ V.:X:X:X!.-.m -.:XXXV.!.d.{ V.:X:XK.!.K.7.7.XX:XXXXXV.m m XX9XXX:XV.M m V.:XXXV.N. .F ",
"V.V.-.{ 7.m i { !.d.7.V.{ m 7.:XK.d.V.-.m { K.d.d.7.m u m V.!.d.-.7.m h V.K.-.7.7.m m V.:XV.7.N. .F ",
"7.{ i i { m i { { i i m M m { V.m m { M u m { m m m h u h 7.{ i i { m m { M i h m i m 7.7.m m ..T C ",
"V.V.{ { :X!.V.:XV.{ m V.:X!.!.!.m { !.XXd.!.XX7.m d.XX!.XX!.7.i 7.:X!.K.K.7.{ d.XXK.!.XXd.{ 7.:X>X).",
"{ m i M !.V.{ d.7.m m V.!.V.7.-.i m K.XXV.K.L.! i 7.:XK.d.-.m   { K.d.{ 7.M m 7.!.V.d.N.{ h { :X&X'.",
"m { i h -.m * h m i h { 7.m i m h h 7.7.M { { u h 7.7.m i h h i { { h i M m h { { h i m m i { C.] V ",
":X:X!.V.XXV.{ V.!.V.V.!.V.M 7.!.XX!.!.K.{ N.oXV.:X:XK.{ 7.XX:X!.!.!.-.-.:X:X!.XX!.{ { V.oX!.!.oXw.( ",
"!.!.7.{ 7.m m d.K.V.V.V.M i { :X!.d.7.m i { :XoXV.7.m i { XXXX7.{ { i i !.:Xd.7.V.m h V.:X!.y.{ w.( ",
"{ { * * I j 3 Q { * @ i h i i { { i i h u h { h i m j i m 7.Q   i m i i { m * i i   i { 7.i i h J V ",
":X!.7.7.2X<XK.XXK.{ { !.9X:X!.:Xy.{ F.:XL.L.XX9.{ K.XX!.!.!.V.Q K.:X!.V.!.V.7.V.:X!.K.:X!.7.V.>X$X$X",
"-.{ i m C.V.-.f.{ i h V.:XK.7.-.i j V.:XV.N.7.m i -.V.f.-.-.Q * 7.!.C.7.-.I m 7.:XV.7.{ { i { [.[./.",
"m m i i { m 3 Q h u i { { m h M i i -.f.m h { m i Q { m j Q m 3 m 7.m i B s 3 Q 7.m i i m i m y.] ) ",
"!.XX!.V.K.-.Q K.XXXX[.K.7.m 7.:XXXK.K.F.m { K.!.!.!.f.{ y.:X:XK.V.V.{ { XXXXK.!.K.7.{ K.>X:X!.!.] _ ",
"!.!.f.7.f.Q j -.:XK.f.f.m i { :XXXf.f.-.i Q K.^.V.7.Q i { K.!.7.7.7.m m XXXXF.V.7.m Q !.:X!.V...D C ",
"-.{ 3 i Q Q 3 Q Q j j j j i h 7.Q j m { i I 7.Q = j m 3 j %.Q 3 m M i i -.-.s j j i m -.7.h i m D C ",
"&XV.j m &X4XK.K.q.m Q K.XX!.K.!.Q j f.XX!.^.K.Q j V.XX!.R.K.q.j F.!.V.d.K.V.Q -.K.!.!.:Xy.h { !.[.(.",
"m.-.#.q.M.m.m.f.#.4.z.m.M.m.q.w.L L <Xm.m.].#.-.o.m.m.f.<XM.X.L K.K.m.K.q.#.4.q.M.R.M.q.=.#.s.M.m.K.",
"V < o 9 V r t V ; < 9 V L V 9 < o $ =.r V #., w # L t , X.V . o L L t t t # $ t r v r , # < w L V L "
};
